<?xml version="1.0" standalone="no"?><!DOCTYPE svg PUBLIC "-//W3C//DTD SVG 1.1//EN" "http://www.w3.org/Graphics/SVG/1.1/DTD/svg11.dtd"><svg t="1722527349048" class="icon" viewBox="0 0 1024 1024" version="1.1" xmlns="http://www.w3.org/2000/svg" p-id="38038" xmlns:xlink="http://www.w3.org/1999/xlink" width="32" height="32"><path d="M512 515m-429 0a429 429 0 1 0 858 0 429 429 0 1 0-858 0Z" fill="#E52323" p-id="38039"></path><path d="M709.38 346.57h-58.22a14 14 0 0 1-13.74-11.32l-4.08-21a52.23 52.23 0 0 0-51.27-42.24H448.93a52.23 52.23 0 0 0-51.27 42.24l-4.08 21a14 14 0 0 1-13.74 11.32h-58.22A104.62 104.62 0 0 0 217 451.18v184.15A104.62 104.62 0 0 0 321.62 740h387.76A104.62 104.62 0 0 0 814 635.33V451.18a104.62 104.62 0 0 0-104.62-104.61zM515.72 662a124.78 124.78 0 1 1 124.77-124.81A124.79 124.79 0 0 1 515.72 662z m217-201.89a23.83 23.83 0 1 1 23.83-23.83 23.83 23.83 0 0 1-23.78 23.8z" fill="#FFFFFF" p-id="38040"></path></svg>